<svg width="1920" height="960" viewBox="0 0 1920 960" fill="none" xmlns="http://www.w3.org/2000/svg">
<g clip-path="url(#clip0_360:140)">
<rect width="1920" height="960" fill="white"/>
<path opacity="0.7" fill-rule="evenodd" clip-rule="evenodd" d="M1804.85 230.031C1857.85 229.09 1909.82 249.355 1950.58 283.255C1989.66 315.77 2001.37 367.132 2024.26 412.536C2052.49 468.543 2105.56 517.253 2100.01 579.727C2094.09 646.471 2055.57 717.092 1994.73 745.172C1935.13 772.68 1870.48 714.413 1804.85 715.952C1736.48 717.556 1667.84 788.054 1608.39 754.234C1550.03 721.036 1568.98 630.974 1545.15 568.207C1519.49 500.621 1435.63 439.601 1463.66 372.963C1492.33 304.801 1594.64 316.936 1662.84 288.365C1711.23 268.096 1752.4 230.963 1804.85 230.031Z" fill="#EF6464"/>
<path opacity="0.7" fill-rule="evenodd" clip-rule="evenodd" d="M179.794 -258.697C238.439 -259.289 303.691 -262.355 347.835 -223.743C391.058 -185.938 381.623 -118.354 401.74 -64.5699C423.235 -7.10184 479.744 41.1897 469.56 101.695C459.11 163.779 396.542 199.456 350.139 242.003C296.869 290.846 251.772 360.862 179.794 367.381C106.572 374.014 42.3339 321.617 -14.5498 275.036C-68.5848 230.789 -130.193 179.452 -134.806 109.765C-139.286 42.1015 -64.8154 -1.06232 -36.9196 -62.87C-13.6426 -114.444 -27.7841 -182.443 14.1983 -220.379C57.2901 -259.317 121.719 -258.112 179.794 -258.697Z" fill="#DEA7D5"/>
<path opacity="0.7" fill-rule="evenodd" clip-rule="evenodd" d="M89.5777 243.535C164.342 240.353 249.33 232.139 305.186 281.937C360.206 330.99 352.474 416.551 365.097 489.174C375.728 550.341 383.977 609.645 372.757 670.706C359.962 740.337 352.059 819.606 296.352 863.296C240.193 907.339 159.129 908.799 89.5777 892.794C28.0911 878.645 -3.79507 814.121 -57.9593 781.763C-120.733 744.262 -217.823 754.524 -250.974 689.348C-283.833 624.749 -235.091 549.384 -210.912 481.061C-187.427 414.696 -168.326 343.391 -113.098 299.736C-56.7186 255.17 17.7759 246.59 89.5777 243.535Z" fill="#E8A19D"/>
<path opacity="0.7" fill-rule="evenodd" clip-rule="evenodd" d="M1871.58 -184.465C1946.34 -187.647 2031.33 -195.861 2087.19 -146.063C2142.21 -97.0097 2134.47 -11.4485 2147.1 61.1745C2157.73 122.341 2165.98 181.645 2154.76 242.706C2141.96 312.337 2134.06 391.606 2078.35 435.296C2022.19 479.339 1941.13 480.799 1871.58 464.794C1810.09 450.645 1778.2 386.121 1724.04 353.763C1661.27 316.262 1564.18 326.524 1531.03 261.348C1498.17 196.749 1546.91 121.384 1571.09 53.0609C1594.57 -13.3039 1613.67 -84.6086 1668.9 -128.264C1725.28 -172.83 1799.78 -181.41 1871.58 -184.465Z" fill="#9DE8A0"/>
<path opacity="0.7" fill-rule="evenodd" clip-rule="evenodd" d="M1790.79 566.303C1849.44 565.711 1914.69 562.645 1958.84 601.257C2002.06 639.062 1992.62 706.646 2012.74 760.43C2034.24 817.898 2090.74 866.19 2080.56 926.695C2070.11 988.779 2007.54 1024.46 1961.14 1067C1907.87 1115.85 1862.77 1185.86 1790.79 1192.38C1717.57 1199.01 1653.33 1146.62 1596.45 1100.04C1542.42 1055.79 1480.81 1004.45 1476.19 934.765C1471.71 867.102 1546.18 823.938 1574.08 762.13C1597.36 710.556 1583.22 642.557 1625.2 604.621C1668.29 565.683 1732.72 566.888 1790.79 566.303Z" fill="#6572E4"/>
<path opacity="0.7" fill-rule="evenodd" clip-rule="evenodd" d="M106.853 618.031C159.854 617.09 211.822 637.355 252.575 671.255C291.665 703.77 303.37 755.132 326.255 800.536C354.485 856.543 407.556 905.253 402.011 967.727C396.088 1034.47 357.573 1105.09 296.733 1133.17C237.13 1160.68 172.48 1102.41 106.853 1103.95C38.4782 1105.56 -30.1647 1176.05 -89.6117 1142.23C-147.967 1109.04 -129.024 1018.97 -152.851 956.207C-178.506 888.621 -262.367 827.601 -234.341 760.963C-205.674 692.801 -103.359 704.936 -35.1564 676.365C13.2278 656.096 54.4031 618.963 106.853 618.031Z" fill="#C264EF"/>
</g>
<defs>
<clipPath id="clip0_360:140">
<rect width="1920" height="960" fill="white"/>
</clipPath>
</defs>
</svg>
