<svg width="800" height="141" viewBox="0 0 800 141" fill="none" xmlns="http://www.w3.org/2000/svg">
<path d="M0 100.045C0.0900495 125.979 20.8915 140.567 55.7407 140.567C90.3197 140.567 112.562 123.638 112.562 97.0734C112.562 76.0018 100.765 64.0252 75.5516 59.6128L57.7217 56.5511C45.385 54.3899 40.072 51.1481 40.072 44.9347C40.072 38.4511 46.3755 34.3089 56.371 34.3089C66.6367 34.3089 74.6511 39.0815 74.9212 47.186H109.77C109.59 21.9721 90.2296 6.12337 55.6506 6.12337C24.6736 6.12337 2.16119 22.6925 2.16119 48.9869C2.16119 69.3381 15.1283 83.0257 38.9914 87.1679L56.1909 90.2296C70.1486 92.751 74.9212 95.3624 74.9212 101.396C74.9212 107.699 67.8973 112.292 56.4611 112.292C46.1954 112.292 37.1905 107.429 36.1099 100.045H0Z" fill="#030104"/>
<path d="M334.894 138.316V38.7213H369.113V8.37461H262.494V38.7213H296.713V138.316H334.894Z" fill="#030104"/>
<path d="M473.841 107.969H420.351V87.0779H470.509V59.7028H420.351V38.7213H473.841V8.37461H382.17V138.316H473.841V107.969Z" fill="#030104"/>
<path d="M529.851 36.5601H545.7C555.966 36.5601 562.9 43.4939 562.9 53.1292C562.9 62.9446 556.326 69.5182 545.61 69.5182H529.851V36.5601ZM529.851 94.7321H542.368L562.9 138.316H605.583L580.91 89.059C594.507 82.5754 601.891 67.8073 601.891 52.4989C601.891 24.6736 584.061 8.37461 549.392 8.37461H491.67V138.316H529.851V94.7321Z" fill="#030104"/>
<path d="M655.561 138.316V8.37461H617.38V138.316H655.561Z" fill="#030104"/>
<path d="M759.298 138.316H800L757.587 8.37461H709.68L667.267 138.316H706.168L712.922 112.472H752.544L759.298 138.316ZM732.373 38.3611H733.093L745.61 85.5471H719.856L732.373 38.3611Z" fill="#030104"/>
<path d="M215.765 12.2948C207.454 9.22108 197.797 31.5744 208.08 36.8843C224.058 45.1347 224.986 58.6739 224.986 72.5055C223.449 89.4108 217.076 107.579 189.636 107.579C162.187 107.579 154.291 83.0397 154.291 72.5055C154.291 59.937 158.889 45.6991 172.733 36.8843C182.699 30.5384 171.196 8.20607 161.975 12.2948C138.908 22.5229 123.835 45.6343 123.835 72.5055C123.835 108.852 153.294 138.316 189.636 138.316C225.997 138.316 255.447 108.852 255.447 72.5055C255.442 44.1613 240.851 21.5731 215.765 12.2948Z" fill="#030104"/>
<path d="M189.626 70.6949C199.404 70.6949 200.396 66.9663 200.396 62.3807V8.33024C200.396 3.73259 199.404 0 189.626 0C179.886 0 178.88 3.73259 178.88 8.33024V62.3807C178.874 66.9703 179.886 70.6949 189.626 70.6949Z" fill="#030104"/>
</svg>
