<svg width="512" height="512" viewBox="0 0 512 512" fill="none" xmlns="http://www.w3.org/2000/svg">
<mask id="path-1-outside-1_11_37" maskUnits="userSpaceOnUse" x="52.485" y="28.191" width="408" height="456" fill="black">
<rect fill="white" x="52.485" y="28.191" width="408" height="456"/>
<path d="M256.099 478.959C244.331 478.953 234.145 474.731 225.817 466.411C217.586 458.178 213.406 448.036 213.406 436.277C213.425 430.379 214.502 424.854 216.616 419.778L133.96 372.19C132.824 373.628 131.573 375.022 130.227 376.352C122.031 384.641 111.882 388.873 100.111 388.875C88.366 388.871 78.199 384.647 69.893 376.324C61.665 368.121 57.487 358.004 57.485 346.262C57.487 334.511 61.657 324.334 69.872 316.014C76.895 309.061 85.196 305.011 94.637 303.894V208.25C85.187 207.126 76.879 203.021 69.895 196.021C61.667 187.818 57.489 177.701 57.487 165.961C57.489 154.21 61.659 144.033 69.874 135.71C78.224 127.447 88.379 123.276 100.11 123.274C111.872 123.276 122.01 127.454 130.251 135.682C131.62 137.066 132.881 138.503 134.022 139.989L216.611 92.312C214.505 87.267 213.426 81.768 213.409 75.89C213.409 64.144 217.581 53.989 225.802 45.687C234.164 37.411 244.338 33.22 256.087 33.191C267.875 33.22 278.016 37.42 286.246 45.671C294.547 53.975 298.745 64.139 298.725 75.879C298.744 81.741 297.688 87.251 295.584 92.309L378.247 139.993C379.386 138.511 380.638 137.081 381.991 135.71C390.341 127.447 400.496 123.276 412.222 123.274C423.987 123.276 434.129 127.454 442.366 135.682C450.67 144.018 454.868 154.202 454.849 165.954C454.868 177.705 450.661 187.826 442.344 196.045C435.43 203.04 427.129 207.144 417.63 208.256V303.888C427.14 305 435.428 309.056 442.364 315.987C450.674 324.324 454.869 334.508 454.847 346.27C454.868 358.005 450.66 368.131 442.342 376.35C434.148 384.639 423.999 388.871 412.226 388.872C400.48 388.869 390.317 384.645 382.006 376.322C380.652 374.966 379.402 373.55 378.257 372.074L295.569 419.775C297.68 424.865 298.738 430.396 298.718 436.291C298.739 448.036 294.535 458.185 286.22 466.425C278.021 474.727 267.874 478.953 256.099 478.959ZM228.516 420.386C225.734 425.122 224.372 430.324 224.352 436.294C224.352 445.15 227.367 452.481 233.559 458.674C239.845 464.955 247.217 468.01 256.099 468.016C264.96 468.01 272.282 464.964 278.476 458.696C284.762 452.467 287.789 445.15 287.774 436.287C287.793 430.31 286.451 425.116 283.67 420.383C282.317 418.087 280.586 415.883 278.516 413.83C272.302 407.623 264.975 404.612 256.096 404.609C247.201 404.612 239.824 407.63 233.533 413.838C231.568 415.825 229.877 418.029 228.549 420.332C228.537 420.354 228.526 420.369 228.516 420.386ZM261.569 393.979C271.027 395.093 279.306 399.146 286.236 406.072C287.61 407.432 288.882 408.859 290.037 410.335L372.729 362.637C370.624 357.609 369.548 352.128 369.531 346.283C369.55 340.353 370.632 334.804 372.751 329.698L351.734 317.576C343.712 322.72 334.609 325.316 324.587 325.332H261.569V393.979ZM139.545 362.774L222.112 410.312C223.232 408.853 224.464 407.443 225.795 406.096C232.84 399.144 241.162 395.093 250.623 393.979V325.325L188.589 325.263L187.553 325.325C187.458 325.33 187.365 325.33 187.27 325.33H185.833C176.343 325.101 167.77 322.559 160.206 317.774L139.537 329.739C141.682 334.826 142.776 340.357 142.798 346.24C142.776 352.163 141.686 357.698 139.545 362.774ZM384.628 361.989C384.64 362.01 384.649 362.029 384.66 362.049C386.002 364.352 387.712 366.554 389.751 368.592C396.023 374.873 403.373 377.931 412.226 377.933C421.086 377.931 428.408 374.882 434.603 368.617C440.891 362.402 443.916 355.108 443.901 346.274C443.917 337.378 440.88 330.007 434.616 323.723C428.429 317.539 421.098 314.527 412.22 314.527C412.203 314.524 412.183 314.524 412.163 314.527C403.325 314.543 395.986 317.559 389.732 323.752C387.733 325.775 386.005 327.993 384.646 330.298C381.862 335.071 380.499 340.302 380.477 346.283C380.499 352.166 381.856 357.318 384.628 361.989ZM100.106 314.525C91.242 314.525 83.883 317.546 77.618 323.749C71.452 329.993 68.432 337.373 68.43 346.266C68.433 355.113 71.442 362.416 77.63 368.587C83.905 374.873 91.255 377.931 100.109 377.933C108.968 377.931 116.292 374.882 122.486 368.617C124.565 366.562 126.276 364.403 127.623 362.151C127.623 362.145 127.628 362.14 127.631 362.134C130.45 357.409 131.829 352.214 131.852 346.24C131.831 340.33 130.452 335.132 127.628 330.39C127.626 330.382 127.623 330.377 127.618 330.37C127.618 330.367 127.618 330.367 127.618 330.367C127.615 330.362 127.612 330.359 127.609 330.357C127.607 330.351 127.609 330.354 127.601 330.343C127.596 330.335 127.589 330.323 127.584 330.316C127.584 330.314 127.584 330.314 127.584 330.314C126.253 328 124.537 325.777 122.49 323.709C116.313 317.538 108.985 314.525 100.106 314.525ZM105.58 303.896C115.035 305.007 123.315 309.063 130.247 315.989C131.616 317.368 132.872 318.805 134.017 320.291L151.068 310.42C151.057 310.408 151.047 310.399 151.036 310.388C141.167 300.532 136.161 288.459 136.164 274.509C136.161 260.54 141.164 248.445 151.036 238.565C159.115 230.5 168.682 225.686 179.53 224.211C179.61 222.255 179.776 220.315 180.027 218.401L133.964 191.884C132.826 193.322 131.578 194.714 130.229 196.047C123.332 203.026 115.048 207.125 105.583 208.252L105.58 303.896ZM360.773 310.154L378.272 320.248C379.406 318.787 380.645 317.373 381.987 316.018C388.992 309.083 397.268 305.031 406.681 303.906V208.245C397.256 207.106 388.978 203.009 382.004 196.023C380.683 194.713 379.457 193.335 378.335 191.903L337.111 215.634C337.471 217.644 337.648 219.722 337.645 221.852C337.648 222.994 337.594 224.122 337.493 225.232C346.115 227.419 353.847 231.885 360.533 238.559C370.411 248.445 375.417 260.54 375.411 274.512C375.419 288.346 370.493 300.338 360.773 310.154ZM163.798 306.979C170.301 311.762 177.551 314.183 185.971 314.388L188.075 314.331C188.195 314.32 188.401 314.331 188.438 314.317L324.582 314.384C333.561 314.369 341.259 311.888 348.092 306.793C348.141 306.755 348.19 306.718 348.239 306.683C349.762 305.505 351.312 304.134 352.793 302.654C360.655 294.804 364.473 285.602 364.467 274.508C364.473 263.388 360.654 254.159 352.796 246.293C346.336 239.848 339.018 236.149 330.419 234.99C328.846 234.778 327.441 233.894 326.57 232.568C325.699 231.239 325.448 229.6 325.881 228.075C326.433 226.142 326.704 224.049 326.701 221.849C326.704 219.285 326.341 216.879 325.616 214.683C324.582 211.605 322.845 208.884 320.305 206.357C315.973 202.003 310.904 199.891 304.798 199.88C299.567 199.896 295.109 201.424 291.195 204.562C289.938 205.564 288.303 205.961 286.731 205.664C285.155 205.358 283.792 204.376 283.002 202.977C280.841 199.14 278.051 195.48 274.709 192.097C268.767 186.176 261.968 182.033 254.526 179.814C254.515 179.814 254.505 179.809 254.494 179.804C249.931 178.419 244.988 177.719 239.808 177.719C239.779 177.719 239.751 177.719 239.725 177.719C225.989 177.719 214.598 182.433 204.883 192.126C197.724 199.281 193.317 207.26 191.421 216.51C191.407 216.585 191.395 216.655 191.378 216.729C190.736 219.996 190.41 223.47 190.41 227.036C190.399 227.792 190.399 228.475 190.41 229.154C190.448 232.126 188.112 234.585 185.143 234.693C174.83 235.081 166.203 238.878 158.767 246.297C150.914 254.158 147.099 263.387 147.102 274.504C147.099 285.601 150.915 294.803 158.77 302.648C160.318 304.198 161.943 305.606 163.599 306.834C163.67 306.884 163.736 306.932 163.798 306.979ZM139.545 182.47L182.623 207.27C185.52 198.817 190.385 191.148 197.151 184.388C208.859 172.701 223.181 166.781 239.721 166.781C243.461 166.884 247.1 167.078 250.621 167.678V118.178C241.149 117.073 232.83 112.994 225.822 106.016C224.475 104.66 223.238 103.244 222.11 101.776L139.538 149.443C141.683 154.527 142.774 160.052 142.796 165.939C142.776 171.862 141.686 177.393 139.545 182.47ZM304.795 188.94C313.85 188.958 321.669 192.213 328.052 198.625C330.099 200.666 331.835 202.878 333.241 205.234L372.778 182.471C370.639 177.406 369.549 171.88 369.531 165.978C369.55 160.068 370.629 154.542 372.746 149.456L290.037 101.752C288.877 103.231 287.599 104.665 286.216 106.031C279.316 112.993 271.035 117.072 261.57 118.177V170.656C269.229 173.571 276.248 178.177 282.468 184.383C285.072 187.017 287.397 189.788 289.422 192.673C294.057 190.207 299.204 188.957 304.795 188.94ZM100.106 134.22C91.242 134.223 83.883 137.24 77.618 143.444C71.452 149.691 68.432 157.071 68.43 165.964C68.433 174.809 71.442 182.112 77.63 188.281C83.905 194.571 91.255 197.626 100.107 197.629C108.969 197.626 116.293 194.578 122.487 188.313C124.572 186.25 126.288 184.088 127.629 181.835C127.629 181.833 127.629 181.833 127.629 181.833C127.629 181.83 127.629 181.83 127.632 181.83C130.451 177.105 131.83 171.909 131.853 165.939C131.832 160.026 130.453 154.828 127.635 150.091C127.619 150.065 127.604 150.04 127.587 150.017C126.253 147.698 124.537 145.472 122.493 143.407C116.313 137.234 108.982 134.223 100.106 134.22ZM384.729 181.882C386.045 184.137 387.727 186.285 389.732 188.268C396.006 194.557 403.336 197.612 412.16 197.627C421.089 197.624 428.409 194.572 434.598 188.311C440.889 182.096 443.913 174.804 443.899 165.968C443.899 165.962 443.899 165.957 443.899 165.949C443.915 157.072 440.878 149.701 434.614 143.417C428.427 137.233 421.096 134.223 412.218 134.22C403.357 134.223 396.001 137.24 389.733 143.444C387.734 145.466 386.018 147.69 384.675 150.009C384.667 150.022 384.659 150.038 384.65 150.054C381.865 154.805 380.5 160.012 380.478 165.979C380.499 171.926 381.877 177.122 384.693 181.818C384.705 181.839 384.719 181.86 384.729 181.882ZM256.096 107.544C256.136 107.547 256.153 107.544 256.177 107.544C265.012 107.544 272.308 104.514 278.482 98.288C280.585 96.21 282.314 94.014 283.661 91.721C283.667 91.71 283.672 91.702 283.679 91.695C286.451 87.008 287.793 81.837 287.776 75.89C287.792 67.017 284.757 59.669 278.5 53.407C272.297 47.192 264.967 44.16 256.086 44.137C247.219 44.158 239.834 47.197 233.543 53.428C227.375 59.658 224.355 67.011 224.355 75.877C224.376 81.82 225.735 87.002 228.514 91.689C228.516 91.689 228.516 91.692 228.519 91.695C228.533 91.719 228.544 91.744 228.559 91.764C229.881 94.067 231.571 96.263 233.58 98.288C239.823 104.509 247.173 107.544 256.018 107.544C256.043 107.544 256.069 107.547 256.096 107.544ZM256.177 298.654C256.116 298.654 256.056 298.654 255.996 298.654C244.288 298.654 234.133 294.46 225.823 286.184C223.153 283.461 220.92 280.538 219.135 277.455C215.37 271.163 213.432 263.92 213.405 255.992C213.432 248.123 215.345 240.932 219.093 234.588C220.843 231.515 223.107 228.541 225.774 225.813C234.169 217.531 244.348 213.362 256.096 213.36C267.861 213.362 277.999 217.54 286.237 225.771C288.996 228.525 291.329 231.518 293.177 234.668C296.881 241.025 298.743 248.194 298.72 255.988C298.743 263.842 296.852 271.063 293.106 277.426C291.252 280.539 288.947 283.478 286.232 286.182C278.035 294.451 267.914 298.654 256.177 298.654ZM256.096 224.303C247.204 224.306 239.825 227.325 233.533 233.535C231.585 235.527 229.887 237.751 228.559 240.081C225.737 244.862 224.372 250.047 224.352 255.992C224.373 261.973 225.751 267.191 228.57 271.908C229.938 274.263 231.614 276.456 233.597 278.474C239.821 284.673 247.169 287.708 256.016 287.708C256.062 287.708 256.107 287.708 256.156 287.708C265.012 287.708 272.308 284.681 278.482 278.453C280.566 276.374 282.311 274.159 283.682 271.848C286.451 267.157 287.791 261.962 287.774 255.988C287.793 250.051 286.466 244.894 283.728 240.189C282.359 237.859 280.598 235.604 278.498 233.506C272.302 227.317 264.975 224.306 256.096 224.303Z"/>
</mask>
<path d="M256.099 478.959C244.331 478.953 234.145 474.731 225.817 466.411C217.586 458.178 213.406 448.036 213.406 436.277C213.425 430.379 214.502 424.854 216.616 419.778L133.96 372.19C132.824 373.628 131.573 375.022 130.227 376.352C122.031 384.641 111.882 388.873 100.111 388.875C88.366 388.871 78.199 384.647 69.893 376.324C61.665 368.121 57.487 358.004 57.485 346.262C57.487 334.511 61.657 324.334 69.872 316.014C76.895 309.061 85.196 305.011 94.637 303.894V208.25C85.187 207.126 76.879 203.021 69.895 196.021C61.667 187.818 57.489 177.701 57.487 165.961C57.489 154.21 61.659 144.033 69.874 135.71C78.224 127.447 88.379 123.276 100.11 123.274C111.872 123.276 122.01 127.454 130.251 135.682C131.62 137.066 132.881 138.503 134.022 139.989L216.611 92.312C214.505 87.267 213.426 81.768 213.409 75.89C213.409 64.144 217.581 53.989 225.802 45.687C234.164 37.411 244.338 33.22 256.087 33.191C267.875 33.22 278.016 37.42 286.246 45.671C294.547 53.975 298.745 64.139 298.725 75.879C298.744 81.741 297.688 87.251 295.584 92.309L378.247 139.993C379.386 138.511 380.638 137.081 381.991 135.71C390.341 127.447 400.496 123.276 412.222 123.274C423.987 123.276 434.129 127.454 442.366 135.682C450.67 144.018 454.868 154.202 454.849 165.954C454.868 177.705 450.661 187.826 442.344 196.045C435.43 203.04 427.129 207.144 417.63 208.256V303.888C427.14 305 435.428 309.056 442.364 315.987C450.674 324.324 454.869 334.508 454.847 346.27C454.868 358.005 450.66 368.131 442.342 376.35C434.148 384.639 423.999 388.871 412.226 388.872C400.48 388.869 390.317 384.645 382.006 376.322C380.652 374.966 379.402 373.55 378.257 372.074L295.569 419.775C297.68 424.865 298.738 430.396 298.718 436.291C298.739 448.036 294.535 458.185 286.22 466.425C278.021 474.727 267.874 478.953 256.099 478.959ZM228.516 420.386C225.734 425.122 224.372 430.324 224.352 436.294C224.352 445.15 227.367 452.481 233.559 458.674C239.845 464.955 247.217 468.01 256.099 468.016C264.96 468.01 272.282 464.964 278.476 458.696C284.762 452.467 287.789 445.15 287.774 436.287C287.793 430.31 286.451 425.116 283.67 420.383C282.317 418.087 280.586 415.883 278.516 413.83C272.302 407.623 264.975 404.612 256.096 404.609C247.201 404.612 239.824 407.63 233.533 413.838C231.568 415.825 229.877 418.029 228.549 420.332C228.537 420.354 228.526 420.369 228.516 420.386ZM261.569 393.979C271.027 395.093 279.306 399.146 286.236 406.072C287.61 407.432 288.882 408.859 290.037 410.335L372.729 362.637C370.624 357.609 369.548 352.128 369.531 346.283C369.55 340.353 370.632 334.804 372.751 329.698L351.734 317.576C343.712 322.72 334.609 325.316 324.587 325.332H261.569V393.979ZM139.545 362.774L222.112 410.312C223.232 408.853 224.464 407.443 225.795 406.096C232.84 399.144 241.162 395.093 250.623 393.979V325.325L188.589 325.263L187.553 325.325C187.458 325.33 187.365 325.33 187.27 325.33H185.833C176.343 325.101 167.77 322.559 160.206 317.774L139.537 329.739C141.682 334.826 142.776 340.357 142.798 346.24C142.776 352.163 141.686 357.698 139.545 362.774ZM384.628 361.989C384.64 362.01 384.649 362.029 384.66 362.049C386.002 364.352 387.712 366.554 389.751 368.592C396.023 374.873 403.373 377.931 412.226 377.933C421.086 377.931 428.408 374.882 434.603 368.617C440.891 362.402 443.916 355.108 443.901 346.274C443.917 337.378 440.88 330.007 434.616 323.723C428.429 317.539 421.098 314.527 412.22 314.527C412.203 314.524 412.183 314.524 412.163 314.527C403.325 314.543 395.986 317.559 389.732 323.752C387.733 325.775 386.005 327.993 384.646 330.298C381.862 335.071 380.499 340.302 380.477 346.283C380.499 352.166 381.856 357.318 384.628 361.989ZM100.106 314.525C91.242 314.525 83.883 317.546 77.618 323.749C71.452 329.993 68.432 337.373 68.43 346.266C68.433 355.113 71.442 362.416 77.63 368.587C83.905 374.873 91.255 377.931 100.109 377.933C108.968 377.931 116.292 374.882 122.486 368.617C124.565 366.562 126.276 364.403 127.623 362.151C127.623 362.145 127.628 362.14 127.631 362.134C130.45 357.409 131.829 352.214 131.852 346.24C131.831 340.33 130.452 335.132 127.628 330.39C127.626 330.382 127.623 330.377 127.618 330.37C127.618 330.367 127.618 330.367 127.618 330.367C127.615 330.362 127.612 330.359 127.609 330.357C127.607 330.351 127.609 330.354 127.601 330.343C127.596 330.335 127.589 330.323 127.584 330.316C127.584 330.314 127.584 330.314 127.584 330.314C126.253 328 124.537 325.777 122.49 323.709C116.313 317.538 108.985 314.525 100.106 314.525ZM105.58 303.896C115.035 305.007 123.315 309.063 130.247 315.989C131.616 317.368 132.872 318.805 134.017 320.291L151.068 310.42C151.057 310.408 151.047 310.399 151.036 310.388C141.167 300.532 136.161 288.459 136.164 274.509C136.161 260.54 141.164 248.445 151.036 238.565C159.115 230.5 168.682 225.686 179.53 224.211C179.61 222.255 179.776 220.315 180.027 218.401L133.964 191.884C132.826 193.322 131.578 194.714 130.229 196.047C123.332 203.026 115.048 207.125 105.583 208.252L105.58 303.896ZM360.773 310.154L378.272 320.248C379.406 318.787 380.645 317.373 381.987 316.018C388.992 309.083 397.268 305.031 406.681 303.906V208.245C397.256 207.106 388.978 203.009 382.004 196.023C380.683 194.713 379.457 193.335 378.335 191.903L337.111 215.634C337.471 217.644 337.648 219.722 337.645 221.852C337.648 222.994 337.594 224.122 337.493 225.232C346.115 227.419 353.847 231.885 360.533 238.559C370.411 248.445 375.417 260.54 375.411 274.512C375.419 288.346 370.493 300.338 360.773 310.154ZM163.798 306.979C170.301 311.762 177.551 314.183 185.971 314.388L188.075 314.331C188.195 314.32 188.401 314.331 188.438 314.317L324.582 314.384C333.561 314.369 341.259 311.888 348.092 306.793C348.141 306.755 348.19 306.718 348.239 306.683C349.762 305.505 351.312 304.134 352.793 302.654C360.655 294.804 364.473 285.602 364.467 274.508C364.473 263.388 360.654 254.159 352.796 246.293C346.336 239.848 339.018 236.149 330.419 234.99C328.846 234.778 327.441 233.894 326.57 232.568C325.699 231.239 325.448 229.6 325.881 228.075C326.433 226.142 326.704 224.049 326.701 221.849C326.704 219.285 326.341 216.879 325.616 214.683C324.582 211.605 322.845 208.884 320.305 206.357C315.973 202.003 310.904 199.891 304.798 199.88C299.567 199.896 295.109 201.424 291.195 204.562C289.938 205.564 288.303 205.961 286.731 205.664C285.155 205.358 283.792 204.376 283.002 202.977C280.841 199.14 278.051 195.48 274.709 192.097C268.767 186.176 261.968 182.033 254.526 179.814C254.515 179.814 254.505 179.809 254.494 179.804C249.931 178.419 244.988 177.719 239.808 177.719C239.779 177.719 239.751 177.719 239.725 177.719C225.989 177.719 214.598 182.433 204.883 192.126C197.724 199.281 193.317 207.26 191.421 216.51C191.407 216.585 191.395 216.655 191.378 216.729C190.736 219.996 190.41 223.47 190.41 227.036C190.399 227.792 190.399 228.475 190.41 229.154C190.448 232.126 188.112 234.585 185.143 234.693C174.83 235.081 166.203 238.878 158.767 246.297C150.914 254.158 147.099 263.387 147.102 274.504C147.099 285.601 150.915 294.803 158.77 302.648C160.318 304.198 161.943 305.606 163.599 306.834C163.67 306.884 163.736 306.932 163.798 306.979ZM139.545 182.47L182.623 207.27C185.52 198.817 190.385 191.148 197.151 184.388C208.859 172.701 223.181 166.781 239.721 166.781C243.461 166.884 247.1 167.078 250.621 167.678V118.178C241.149 117.073 232.83 112.994 225.822 106.016C224.475 104.66 223.238 103.244 222.11 101.776L139.538 149.443C141.683 154.527 142.774 160.052 142.796 165.939C142.776 171.862 141.686 177.393 139.545 182.47ZM304.795 188.94C313.85 188.958 321.669 192.213 328.052 198.625C330.099 200.666 331.835 202.878 333.241 205.234L372.778 182.471C370.639 177.406 369.549 171.88 369.531 165.978C369.55 160.068 370.629 154.542 372.746 149.456L290.037 101.752C288.877 103.231 287.599 104.665 286.216 106.031C279.316 112.993 271.035 117.072 261.57 118.177V170.656C269.229 173.571 276.248 178.177 282.468 184.383C285.072 187.017 287.397 189.788 289.422 192.673C294.057 190.207 299.204 188.957 304.795 188.94ZM100.106 134.22C91.242 134.223 83.883 137.24 77.618 143.444C71.452 149.691 68.432 157.071 68.43 165.964C68.433 174.809 71.442 182.112 77.63 188.281C83.905 194.571 91.255 197.626 100.107 197.629C108.969 197.626 116.293 194.578 122.487 188.313C124.572 186.25 126.288 184.088 127.629 181.835C127.629 181.833 127.629 181.833 127.629 181.833C127.629 181.83 127.629 181.83 127.632 181.83C130.451 177.105 131.83 171.909 131.853 165.939C131.832 160.026 130.453 154.828 127.635 150.091C127.619 150.065 127.604 150.04 127.587 150.017C126.253 147.698 124.537 145.472 122.493 143.407C116.313 137.234 108.982 134.223 100.106 134.22ZM384.729 181.882C386.045 184.137 387.727 186.285 389.732 188.268C396.006 194.557 403.336 197.612 412.16 197.627C421.089 197.624 428.409 194.572 434.598 188.311C440.889 182.096 443.913 174.804 443.899 165.968C443.899 165.962 443.899 165.957 443.899 165.949C443.915 157.072 440.878 149.701 434.614 143.417C428.427 137.233 421.096 134.223 412.218 134.22C403.357 134.223 396.001 137.24 389.733 143.444C387.734 145.466 386.018 147.69 384.675 150.009C384.667 150.022 384.659 150.038 384.65 150.054C381.865 154.805 380.5 160.012 380.478 165.979C380.499 171.926 381.877 177.122 384.693 181.818C384.705 181.839 384.719 181.86 384.729 181.882ZM256.096 107.544C256.136 107.547 256.153 107.544 256.177 107.544C265.012 107.544 272.308 104.514 278.482 98.288C280.585 96.21 282.314 94.014 283.661 91.721C283.667 91.71 283.672 91.702 283.679 91.695C286.451 87.008 287.793 81.837 287.776 75.89C287.792 67.017 284.757 59.669 278.5 53.407C272.297 47.192 264.967 44.16 256.086 44.137C247.219 44.158 239.834 47.197 233.543 53.428C227.375 59.658 224.355 67.011 224.355 75.877C224.376 81.82 225.735 87.002 228.514 91.689C228.516 91.689 228.516 91.692 228.519 91.695C228.533 91.719 228.544 91.744 228.559 91.764C229.881 94.067 231.571 96.263 233.58 98.288C239.823 104.509 247.173 107.544 256.018 107.544C256.043 107.544 256.069 107.547 256.096 107.544ZM256.177 298.654C256.116 298.654 256.056 298.654 255.996 298.654C244.288 298.654 234.133 294.46 225.823 286.184C223.153 283.461 220.92 280.538 219.135 277.455C215.37 271.163 213.432 263.92 213.405 255.992C213.432 248.123 215.345 240.932 219.093 234.588C220.843 231.515 223.107 228.541 225.774 225.813C234.169 217.531 244.348 213.362 256.096 213.36C267.861 213.362 277.999 217.54 286.237 225.771C288.996 228.525 291.329 231.518 293.177 234.668C296.881 241.025 298.743 248.194 298.72 255.988C298.743 263.842 296.852 271.063 293.106 277.426C291.252 280.539 288.947 283.478 286.232 286.182C278.035 294.451 267.914 298.654 256.177 298.654ZM256.096 224.303C247.204 224.306 239.825 227.325 233.533 233.535C231.585 235.527 229.887 237.751 228.559 240.081C225.737 244.862 224.372 250.047 224.352 255.992C224.373 261.973 225.751 267.191 228.57 271.908C229.938 274.263 231.614 276.456 233.597 278.474C239.821 284.673 247.169 287.708 256.016 287.708C256.062 287.708 256.107 287.708 256.156 287.708C265.012 287.708 272.308 284.681 278.482 278.453C280.566 276.374 282.311 274.159 283.682 271.848C286.451 267.157 287.791 261.962 287.774 255.988C287.793 250.051 286.466 244.894 283.728 240.189C282.359 237.859 280.598 235.604 278.498 233.506C272.302 227.317 264.975 224.306 256.096 224.303Z" fill="#6C63FF"/>
<path d="M256.099 478.959C244.331 478.953 234.145 474.731 225.817 466.411C217.586 458.178 213.406 448.036 213.406 436.277C213.425 430.379 214.502 424.854 216.616 419.778L133.96 372.19C132.824 373.628 131.573 375.022 130.227 376.352C122.031 384.641 111.882 388.873 100.111 388.875C88.366 388.871 78.199 384.647 69.893 376.324C61.665 368.121 57.487 358.004 57.485 346.262C57.487 334.511 61.657 324.334 69.872 316.014C76.895 309.061 85.196 305.011 94.637 303.894V208.25C85.187 207.126 76.879 203.021 69.895 196.021C61.667 187.818 57.489 177.701 57.487 165.961C57.489 154.21 61.659 144.033 69.874 135.71C78.224 127.447 88.379 123.276 100.11 123.274C111.872 123.276 122.01 127.454 130.251 135.682C131.62 137.066 132.881 138.503 134.022 139.989L216.611 92.312C214.505 87.267 213.426 81.768 213.409 75.89C213.409 64.144 217.581 53.989 225.802 45.687C234.164 37.411 244.338 33.22 256.087 33.191C267.875 33.22 278.016 37.42 286.246 45.671C294.547 53.975 298.745 64.139 298.725 75.879C298.744 81.741 297.688 87.251 295.584 92.309L378.247 139.993C379.386 138.511 380.638 137.081 381.991 135.71C390.341 127.447 400.496 123.276 412.222 123.274C423.987 123.276 434.129 127.454 442.366 135.682C450.67 144.018 454.868 154.202 454.849 165.954C454.868 177.705 450.661 187.826 442.344 196.045C435.43 203.04 427.129 207.144 417.63 208.256V303.888C427.14 305 435.428 309.056 442.364 315.987C450.674 324.324 454.869 334.508 454.847 346.27C454.868 358.005 450.66 368.131 442.342 376.35C434.148 384.639 423.999 388.871 412.226 388.872C400.48 388.869 390.317 384.645 382.006 376.322C380.652 374.966 379.402 373.55 378.257 372.074L295.569 419.775C297.68 424.865 298.738 430.396 298.718 436.291C298.739 448.036 294.535 458.185 286.22 466.425C278.021 474.727 267.874 478.953 256.099 478.959ZM228.516 420.386C225.734 425.122 224.372 430.324 224.352 436.294C224.352 445.15 227.367 452.481 233.559 458.674C239.845 464.955 247.217 468.01 256.099 468.016C264.96 468.01 272.282 464.964 278.476 458.696C284.762 452.467 287.789 445.15 287.774 436.287C287.793 430.31 286.451 425.116 283.67 420.383C282.317 418.087 280.586 415.883 278.516 413.83C272.302 407.623 264.975 404.612 256.096 404.609C247.201 404.612 239.824 407.63 233.533 413.838C231.568 415.825 229.877 418.029 228.549 420.332C228.537 420.354 228.526 420.369 228.516 420.386ZM261.569 393.979C271.027 395.093 279.306 399.146 286.236 406.072C287.61 407.432 288.882 408.859 290.037 410.335L372.729 362.637C370.624 357.609 369.548 352.128 369.531 346.283C369.55 340.353 370.632 334.804 372.751 329.698L351.734 317.576C343.712 322.72 334.609 325.316 324.587 325.332H261.569V393.979ZM139.545 362.774L222.112 410.312C223.232 408.853 224.464 407.443 225.795 406.096C232.84 399.144 241.162 395.093 250.623 393.979V325.325L188.589 325.263L187.553 325.325C187.458 325.33 187.365 325.33 187.27 325.33H185.833C176.343 325.101 167.77 322.559 160.206 317.774L139.537 329.739C141.682 334.826 142.776 340.357 142.798 346.24C142.776 352.163 141.686 357.698 139.545 362.774ZM384.628 361.989C384.64 362.01 384.649 362.029 384.66 362.049C386.002 364.352 387.712 366.554 389.751 368.592C396.023 374.873 403.373 377.931 412.226 377.933C421.086 377.931 428.408 374.882 434.603 368.617C440.891 362.402 443.916 355.108 443.901 346.274C443.917 337.378 440.88 330.007 434.616 323.723C428.429 317.539 421.098 314.527 412.22 314.527C412.203 314.524 412.183 314.524 412.163 314.527C403.325 314.543 395.986 317.559 389.732 323.752C387.733 325.775 386.005 327.993 384.646 330.298C381.862 335.071 380.499 340.302 380.477 346.283C380.499 352.166 381.856 357.318 384.628 361.989ZM100.106 314.525C91.242 314.525 83.883 317.546 77.618 323.749C71.452 329.993 68.432 337.373 68.43 346.266C68.433 355.113 71.442 362.416 77.63 368.587C83.905 374.873 91.255 377.931 100.109 377.933C108.968 377.931 116.292 374.882 122.486 368.617C124.565 366.562 126.276 364.403 127.623 362.151C127.623 362.145 127.628 362.14 127.631 362.134C130.45 357.409 131.829 352.214 131.852 346.24C131.831 340.33 130.452 335.132 127.628 330.39C127.626 330.382 127.623 330.377 127.618 330.37C127.618 330.367 127.618 330.367 127.618 330.367C127.615 330.362 127.612 330.359 127.609 330.357C127.607 330.351 127.609 330.354 127.601 330.343C127.596 330.335 127.589 330.323 127.584 330.316C127.584 330.314 127.584 330.314 127.584 330.314C126.253 328 124.537 325.777 122.49 323.709C116.313 317.538 108.985 314.525 100.106 314.525ZM105.58 303.896C115.035 305.007 123.315 309.063 130.247 315.989C131.616 317.368 132.872 318.805 134.017 320.291L151.068 310.42C151.057 310.408 151.047 310.399 151.036 310.388C141.167 300.532 136.161 288.459 136.164 274.509C136.161 260.54 141.164 248.445 151.036 238.565C159.115 230.5 168.682 225.686 179.53 224.211C179.61 222.255 179.776 220.315 180.027 218.401L133.964 191.884C132.826 193.322 131.578 194.714 130.229 196.047C123.332 203.026 115.048 207.125 105.583 208.252L105.58 303.896ZM360.773 310.154L378.272 320.248C379.406 318.787 380.645 317.373 381.987 316.018C388.992 309.083 397.268 305.031 406.681 303.906V208.245C397.256 207.106 388.978 203.009 382.004 196.023C380.683 194.713 379.457 193.335 378.335 191.903L337.111 215.634C337.471 217.644 337.648 219.722 337.645 221.852C337.648 222.994 337.594 224.122 337.493 225.232C346.115 227.419 353.847 231.885 360.533 238.559C370.411 248.445 375.417 260.54 375.411 274.512C375.419 288.346 370.493 300.338 360.773 310.154ZM163.798 306.979C170.301 311.762 177.551 314.183 185.971 314.388L188.075 314.331C188.195 314.32 188.401 314.331 188.438 314.317L324.582 314.384C333.561 314.369 341.259 311.888 348.092 306.793C348.141 306.755 348.19 306.718 348.239 306.683C349.762 305.505 351.312 304.134 352.793 302.654C360.655 294.804 364.473 285.602 364.467 274.508C364.473 263.388 360.654 254.159 352.796 246.293C346.336 239.848 339.018 236.149 330.419 234.99C328.846 234.778 327.441 233.894 326.57 232.568C325.699 231.239 325.448 229.6 325.881 228.075C326.433 226.142 326.704 224.049 326.701 221.849C326.704 219.285 326.341 216.879 325.616 214.683C324.582 211.605 322.845 208.884 320.305 206.357C315.973 202.003 310.904 199.891 304.798 199.88C299.567 199.896 295.109 201.424 291.195 204.562C289.938 205.564 288.303 205.961 286.731 205.664C285.155 205.358 283.792 204.376 283.002 202.977C280.841 199.14 278.051 195.48 274.709 192.097C268.767 186.176 261.968 182.033 254.526 179.814C254.515 179.814 254.505 179.809 254.494 179.804C249.931 178.419 244.988 177.719 239.808 177.719C239.779 177.719 239.751 177.719 239.725 177.719C225.989 177.719 214.598 182.433 204.883 192.126C197.724 199.281 193.317 207.26 191.421 216.51C191.407 216.585 191.395 216.655 191.378 216.729C190.736 219.996 190.41 223.47 190.41 227.036C190.399 227.792 190.399 228.475 190.41 229.154C190.448 232.126 188.112 234.585 185.143 234.693C174.83 235.081 166.203 238.878 158.767 246.297C150.914 254.158 147.099 263.387 147.102 274.504C147.099 285.601 150.915 294.803 158.77 302.648C160.318 304.198 161.943 305.606 163.599 306.834C163.67 306.884 163.736 306.932 163.798 306.979ZM139.545 182.47L182.623 207.27C185.52 198.817 190.385 191.148 197.151 184.388C208.859 172.701 223.181 166.781 239.721 166.781C243.461 166.884 247.1 167.078 250.621 167.678V118.178C241.149 117.073 232.83 112.994 225.822 106.016C224.475 104.66 223.238 103.244 222.11 101.776L139.538 149.443C141.683 154.527 142.774 160.052 142.796 165.939C142.776 171.862 141.686 177.393 139.545 182.47ZM304.795 188.94C313.85 188.958 321.669 192.213 328.052 198.625C330.099 200.666 331.835 202.878 333.241 205.234L372.778 182.471C370.639 177.406 369.549 171.88 369.531 165.978C369.55 160.068 370.629 154.542 372.746 149.456L290.037 101.752C288.877 103.231 287.599 104.665 286.216 106.031C279.316 112.993 271.035 117.072 261.57 118.177V170.656C269.229 173.571 276.248 178.177 282.468 184.383C285.072 187.017 287.397 189.788 289.422 192.673C294.057 190.207 299.204 188.957 304.795 188.94ZM100.106 134.22C91.242 134.223 83.883 137.24 77.618 143.444C71.452 149.691 68.432 157.071 68.43 165.964C68.433 174.809 71.442 182.112 77.63 188.281C83.905 194.571 91.255 197.626 100.107 197.629C108.969 197.626 116.293 194.578 122.487 188.313C124.572 186.25 126.288 184.088 127.629 181.835C127.629 181.833 127.629 181.833 127.629 181.833C127.629 181.83 127.629 181.83 127.632 181.83C130.451 177.105 131.83 171.909 131.853 165.939C131.832 160.026 130.453 154.828 127.635 150.091C127.619 150.065 127.604 150.04 127.587 150.017C126.253 147.698 124.537 145.472 122.493 143.407C116.313 137.234 108.982 134.223 100.106 134.22ZM384.729 181.882C386.045 184.137 387.727 186.285 389.732 188.268C396.006 194.557 403.336 197.612 412.16 197.627C421.089 197.624 428.409 194.572 434.598 188.311C440.889 182.096 443.913 174.804 443.899 165.968C443.899 165.962 443.899 165.957 443.899 165.949C443.915 157.072 440.878 149.701 434.614 143.417C428.427 137.233 421.096 134.223 412.218 134.22C403.357 134.223 396.001 137.24 389.733 143.444C387.734 145.466 386.018 147.69 384.675 150.009C384.667 150.022 384.659 150.038 384.65 150.054C381.865 154.805 380.5 160.012 380.478 165.979C380.499 171.926 381.877 177.122 384.693 181.818C384.705 181.839 384.719 181.86 384.729 181.882ZM256.096 107.544C256.136 107.547 256.153 107.544 256.177 107.544C265.012 107.544 272.308 104.514 278.482 98.288C280.585 96.21 282.314 94.014 283.661 91.721C283.667 91.71 283.672 91.702 283.679 91.695C286.451 87.008 287.793 81.837 287.776 75.89C287.792 67.017 284.757 59.669 278.5 53.407C272.297 47.192 264.967 44.16 256.086 44.137C247.219 44.158 239.834 47.197 233.543 53.428C227.375 59.658 224.355 67.011 224.355 75.877C224.376 81.82 225.735 87.002 228.514 91.689C228.516 91.689 228.516 91.692 228.519 91.695C228.533 91.719 228.544 91.744 228.559 91.764C229.881 94.067 231.571 96.263 233.58 98.288C239.823 104.509 247.173 107.544 256.018 107.544C256.043 107.544 256.069 107.547 256.096 107.544ZM256.177 298.654C256.116 298.654 256.056 298.654 255.996 298.654C244.288 298.654 234.133 294.46 225.823 286.184C223.153 283.461 220.92 280.538 219.135 277.455C215.37 271.163 213.432 263.92 213.405 255.992C213.432 248.123 215.345 240.932 219.093 234.588C220.843 231.515 223.107 228.541 225.774 225.813C234.169 217.531 244.348 213.362 256.096 213.36C267.861 213.362 277.999 217.54 286.237 225.771C288.996 228.525 291.329 231.518 293.177 234.668C296.881 241.025 298.743 248.194 298.72 255.988C298.743 263.842 296.852 271.063 293.106 277.426C291.252 280.539 288.947 283.478 286.232 286.182C278.035 294.451 267.914 298.654 256.177 298.654ZM256.096 224.303C247.204 224.306 239.825 227.325 233.533 233.535C231.585 235.527 229.887 237.751 228.559 240.081C225.737 244.862 224.372 250.047 224.352 255.992C224.373 261.973 225.751 267.191 228.57 271.908C229.938 274.263 231.614 276.456 233.597 278.474C239.821 284.673 247.169 287.708 256.016 287.708C256.062 287.708 256.107 287.708 256.156 287.708C265.012 287.708 272.308 284.681 278.482 278.453C280.566 276.374 282.311 274.159 283.682 271.848C286.451 267.157 287.791 261.962 287.774 255.988C287.793 250.051 286.466 244.894 283.728 240.189C282.359 237.859 280.598 235.604 278.498 233.506C272.302 227.317 264.975 224.306 256.096 224.303Z" stroke="#6C63FF" stroke-width="10" mask="url(#path-1-outside-1_11_37)"/>
</svg>
