<svg width="200" height="67" viewBox="0 0 200 67" fill="none" xmlns="http://www.w3.org/2000/svg">
<path d="M29.6376 66.5185C27.8816 66.5176 26.3616 65.8876 25.1189 64.646C23.8906 63.4175 23.2669 61.9041 23.2669 60.1494C23.2697 59.2693 23.4304 58.4448 23.7459 57.6874L11.4118 50.5862C11.2423 50.8008 11.0556 51.0088 10.8547 51.2072C9.6317 52.4441 8.11724 53.0757 6.36075 53.076C4.60813 53.0754 3.09099 52.445 1.85155 51.2031C0.623748 49.979 0.000298444 48.4693 0 46.7171C0.000298444 44.9636 0.622555 43.445 1.84842 42.2035C2.8964 41.1659 4.1351 40.5616 5.5439 40.3949V26.1227C4.13375 25.955 2.89402 25.3424 1.85185 24.2979C0.624047 23.0738 0.000596725 21.5641 0.000298281 19.8122C0.000596725 18.0587 0.622854 16.5401 1.84871 15.2981C3.09472 14.0651 4.61007 13.4427 6.3606 13.4424C8.11575 13.4427 9.62856 14.0661 10.8583 15.2939C11.0626 15.5005 11.2508 15.7149 11.421 15.9366L23.7451 8.82217C23.4309 8.06934 23.2699 7.24877 23.2673 6.37164C23.2673 4.61888 23.8899 3.10352 25.1166 1.86468C26.3644 0.629718 27.8826 0.00432744 29.6358 0C31.3949 0.00432744 32.9081 0.631061 34.1362 1.86229C35.3749 3.10143 36.0014 4.61813 35.9984 6.37C36.0012 7.24474 35.8436 8.06695 35.5297 8.82172L47.8648 15.9372C48.0348 15.7161 48.2216 15.5027 48.4235 15.2981C49.6695 14.0651 51.1849 13.4427 52.9346 13.4424C54.6902 13.4427 56.2037 14.0661 57.4328 15.2939C58.6719 16.5379 59.2984 18.0575 59.2955 19.8112C59.2984 21.5647 58.6706 23.075 57.4295 24.3014C56.3978 25.3452 55.1591 25.9577 53.7416 26.1236V40.394C55.1607 40.5599 56.3975 41.1652 57.4325 42.1994C58.6725 43.4435 59.2985 44.9632 59.2952 46.7183C59.2984 48.4695 58.6704 49.9805 57.4292 51.2069C56.2065 52.4438 54.692 53.0754 52.9352 53.0755C51.1825 53.0751 49.6659 52.4447 48.4257 51.2028C48.2237 51.0004 48.0372 50.7891 47.8663 50.5689L35.5274 57.6869C35.8424 58.4465 36.0003 59.2718 35.9973 60.1515C36.0005 61.9041 35.3731 63.4185 34.1323 64.6481C32.9089 65.887 31.3947 66.5176 29.6376 66.5185ZM25.5216 57.7781C25.1065 58.4848 24.9032 59.2611 24.9003 60.1519C24.9003 61.4734 25.3502 62.5674 26.2742 63.4915C27.2122 64.4288 28.3122 64.8847 29.6376 64.8856C30.9599 64.8847 32.0525 64.4301 32.9768 63.4948C33.9148 62.5653 34.3665 61.4734 34.3642 60.1509C34.3671 59.259 34.1668 58.4839 33.7518 57.7776C33.5499 57.435 33.2916 57.1061 32.9827 56.7998C32.0555 55.8736 30.9621 55.4243 29.6372 55.4238C28.3098 55.4243 27.209 55.8746 26.2703 56.801C25.9771 57.0975 25.7247 57.4264 25.5266 57.77C25.5248 57.7733 25.5231 57.7756 25.5216 57.7781ZM30.4539 53.8376C31.8652 54.0038 33.1006 54.6086 34.1347 55.6421C34.3398 55.8451 34.5296 56.058 34.7019 56.2783L47.0414 49.1607C46.7273 48.4104 46.5667 47.5925 46.5642 46.7203C46.567 45.8354 46.7285 45.0074 47.0447 44.2454L43.9085 42.4366C42.7114 43.2042 41.3531 43.5915 39.8576 43.5939H30.4539V53.8376ZM12.2452 49.1811L24.566 56.2748C24.7331 56.0571 24.917 55.8467 25.1156 55.6457C26.1669 54.6083 27.4087 54.0038 28.8205 53.8376V43.5929L19.5636 43.5836L19.409 43.5929C19.3949 43.5936 19.381 43.5936 19.3668 43.5936H19.1524C17.7363 43.5595 16.457 43.1801 15.3283 42.4661L12.244 44.2516C12.5641 45.0106 12.7273 45.836 12.7306 46.7139C12.7273 47.5977 12.5647 48.4236 12.2452 49.1811ZM48.817 49.064C48.8188 49.0671 48.8201 49.0699 48.8218 49.0729C49.022 49.4166 49.2772 49.7452 49.5815 50.0493C50.5174 50.9865 51.6142 51.4429 52.9352 51.4432C54.2574 51.4429 55.3499 50.9879 56.2744 50.053C57.2127 49.1256 57.6641 48.0372 57.6619 46.7189C57.6642 45.3915 57.211 44.2915 56.2763 43.3538C55.3531 42.431 54.2591 41.9816 52.9343 41.9816C52.9318 41.9811 52.9288 41.9811 52.9258 41.9816C51.607 41.984 50.5119 42.434 49.5786 43.3582C49.2803 43.66 49.0225 43.991 48.8197 44.335C48.4043 45.0472 48.2009 45.8278 48.1976 46.7203C48.2009 47.5982 48.4034 48.367 48.817 49.064ZM6.36 41.9813C5.03729 41.9813 3.93917 42.4321 3.00429 43.3577C2.08419 44.2895 1.63354 45.3907 1.63324 46.7177C1.63368 48.0379 2.08269 49.1277 3.00608 50.0485C3.94245 50.9865 5.03923 51.4429 6.36045 51.4432C7.68241 51.4429 8.77531 50.9879 9.69959 50.053C10.0098 49.7464 10.2651 49.4242 10.4661 49.0881C10.4661 49.0872 10.4669 49.0865 10.4673 49.0856C10.888 48.3805 11.0938 47.6053 11.0972 46.7139C11.0941 45.832 10.8883 45.0563 10.4669 44.3487C10.4666 44.3475 10.4661 44.3468 10.4654 44.3457C10.4654 44.3453 10.4654 44.3453 10.4654 44.3453C10.465 44.3445 10.4645 44.3441 10.4641 44.3438C10.4638 44.3429 10.4641 44.3433 10.4629 44.3417C10.4621 44.3405 10.4611 44.3387 10.4603 44.3377V44.3374C10.2617 43.9921 10.0056 43.6603 9.70019 43.3517C8.77844 42.4309 7.68494 41.9813 6.36 41.9813ZM7.17684 40.3952C8.58774 40.561 9.8233 41.1662 10.8577 42.1997C11.062 42.4055 11.2494 42.62 11.4203 42.8417L13.9647 41.3687C13.963 41.3669 13.9615 41.3656 13.9599 41.3639C12.4872 39.8932 11.7402 38.0917 11.7407 36.01C11.7402 33.9255 12.4868 32.1207 13.9599 30.6464C15.1655 29.4429 16.5931 28.7245 18.2118 28.5044C18.2238 28.2125 18.2485 27.9231 18.286 27.6374L11.4124 23.6805C11.2426 23.8951 11.0563 24.1028 10.855 24.3017C9.82584 25.3432 8.58968 25.9548 7.17729 26.123L7.17684 40.3952ZM45.2573 41.329L47.8685 42.8353C48.0378 42.6173 48.2227 42.4063 48.4229 42.2041C49.4682 41.1692 50.7032 40.5646 52.1078 40.3967V26.1219C50.7014 25.952 49.4661 25.3406 48.4254 24.2982C48.2283 24.1027 48.0454 23.897 47.8779 23.6834L41.7264 27.2245C41.7801 27.5245 41.8065 27.8346 41.8061 28.1524C41.8065 28.3228 41.7985 28.4911 41.7834 28.6568C43.07 28.9831 44.2238 29.6496 45.2215 30.6455C46.6955 32.1207 47.4425 33.9255 47.4416 36.0105C47.4428 38.0748 46.7078 39.8643 45.2573 41.329ZM15.8643 40.8553C16.8347 41.569 17.9165 41.9302 19.173 41.9608L19.4869 41.9523C19.5048 41.9507 19.5356 41.9523 19.5411 41.9502L39.8568 41.9602C41.1967 41.958 42.3454 41.5878 43.365 40.8275C43.3723 40.8218 43.3797 40.8163 43.387 40.8111C43.6142 40.6353 43.8455 40.4307 44.0665 40.2099C45.2397 39.0385 45.8094 37.6653 45.8085 36.0099C45.8094 34.3505 45.2395 32.9733 44.067 31.7996C43.103 30.8378 42.011 30.2858 40.7278 30.1129C40.4931 30.0813 40.2834 29.9493 40.1535 29.7515C40.0235 29.5532 39.986 29.3086 40.0506 29.081C40.133 28.7926 40.1735 28.4803 40.173 28.152C40.1735 27.7694 40.1193 27.4103 40.0111 27.0826C39.8568 26.6233 39.5976 26.2173 39.2186 25.8402C38.5722 25.1905 37.8157 24.8753 36.9046 24.8737C36.124 24.8761 35.4588 25.1041 34.8747 25.5724C34.6872 25.7219 34.4432 25.7811 34.2086 25.7368C33.9734 25.6911 33.77 25.5446 33.6521 25.3358C33.3297 24.7633 32.9134 24.2171 32.4146 23.7123C31.528 22.8288 30.5134 22.2105 29.4029 21.8794C29.4013 21.8794 29.3998 21.8787 29.3981 21.8779C28.7172 21.6712 27.9796 21.5668 27.2066 21.5668C27.2023 21.5668 27.1981 21.5668 27.1943 21.5668C25.1445 21.5668 23.4447 22.2702 21.9951 23.7166C20.9268 24.7843 20.2692 25.975 19.9862 27.3553C19.9841 27.3665 19.9823 27.3769 19.9798 27.3879C19.884 27.8755 19.8354 28.3939 19.8354 28.926C19.8337 29.0388 19.8337 29.1407 19.8354 29.242C19.841 29.6855 19.4925 30.0525 19.0494 30.0686C17.5105 30.1265 16.2231 30.6931 15.1135 31.8001C13.9417 32.9732 13.3724 34.3504 13.3728 36.0093C13.3724 37.6652 13.9418 39.0383 15.114 40.209C15.345 40.4403 15.5875 40.6504 15.8346 40.8336C15.8452 40.8411 15.855 40.8482 15.8643 40.8553ZM12.2452 22.2757L18.6734 25.9765C19.1057 24.7151 19.8316 23.5707 20.8413 22.562C22.5884 20.818 24.7255 19.9346 27.1937 19.9346C27.7518 19.95 28.2948 19.9789 28.8202 20.0684V12.6819C27.4067 12.5171 26.1654 11.9084 25.1196 10.8671C24.9186 10.6648 24.734 10.4535 24.5657 10.2344L12.2441 17.3474C12.5642 18.106 12.727 18.9305 12.7303 19.8089C12.7273 20.6928 12.5647 21.5181 12.2452 22.2757ZM36.9041 23.2412C38.2554 23.2439 39.4221 23.7296 40.3746 24.6864C40.6801 24.991 40.9391 25.3211 41.1489 25.6726L47.0487 22.2759C46.7295 21.5201 46.5669 20.6955 46.5642 19.8148C46.567 18.9329 46.728 18.1083 47.0439 17.3493L34.7019 10.2308C34.5288 10.4515 34.3381 10.6655 34.1317 10.8693C33.1021 11.9082 31.8664 12.5169 30.454 12.6818V20.5128C31.5969 20.9478 32.6443 21.6351 33.5725 22.5612C33.961 22.9543 34.308 23.3678 34.6102 23.7983C35.3018 23.4303 36.0698 23.2437 36.9041 23.2412ZM6.36 15.0758C5.03729 15.0762 3.93917 15.5264 3.00429 16.4522C2.08419 17.3844 1.63354 18.4856 1.63324 19.8127C1.63368 21.1326 2.08269 22.2223 3.00608 23.1429C3.94245 24.0815 5.03923 24.5374 6.36015 24.5378C7.68256 24.5374 8.77546 24.0825 9.69974 23.1477C10.0109 22.8398 10.2669 22.5172 10.467 22.181V22.1807C10.467 22.1802 10.467 22.1802 10.4675 22.1802C10.8881 21.4752 11.0939 20.6998 11.0974 19.8089C11.0942 18.9266 10.8884 18.1509 10.4679 17.4441C10.4656 17.4402 10.4633 17.4365 10.4608 17.433C10.2617 17.087 10.0056 16.7548 9.70064 16.4467C8.77844 15.5255 7.6845 15.0762 6.36 15.0758ZM48.8321 22.188C49.0285 22.5245 49.2794 22.845 49.5786 23.1409C50.5149 24.0794 51.6087 24.5353 52.9254 24.5375C54.2578 24.5371 55.3501 24.0816 56.2736 23.1474C57.2124 22.2199 57.6636 21.1318 57.6616 19.8133C57.6616 19.8124 57.6616 19.8116 57.6616 19.8104C57.6639 18.4858 57.2108 17.3859 56.276 16.4482C55.3528 15.5254 54.2588 15.0762 52.934 15.0758C51.6118 15.0762 50.5141 15.5264 49.5788 16.4522C49.2805 16.7539 49.0244 17.0858 48.824 17.4318C48.8228 17.4338 48.8216 17.4362 48.8203 17.4386C48.4047 18.1475 48.201 18.9245 48.1977 19.8149C48.2009 20.7023 48.4065 21.4777 48.8267 22.1784C48.8285 22.1816 48.8306 22.1847 48.8321 22.188ZM29.6372 11.0951C29.6431 11.0956 29.6457 11.0951 29.6493 11.0951C30.9676 11.0951 32.0564 10.643 32.9777 9.71392C33.2915 9.40384 33.5495 9.07614 33.7505 8.73398C33.7514 8.73234 33.7521 8.73114 33.7532 8.7301C34.1668 8.03069 34.3671 7.25906 34.3645 6.37164C34.3669 5.04759 33.914 3.95111 32.9804 3.01668C32.0547 2.08926 30.9609 1.63682 29.6357 1.63339C28.3125 1.63652 27.2105 2.09001 26.2718 3.01981C25.3514 3.94946 24.9007 5.04669 24.9007 6.3697C24.9038 7.25653 25.1066 8.0298 25.5213 8.7292C25.5213 8.7292 25.5216 8.72965 25.5221 8.7301C25.5242 8.73368 25.5258 8.73741 25.528 8.74039C25.7253 9.08405 25.9775 9.41174 26.2773 9.71392C27.2089 10.6422 28.3057 11.0951 29.6255 11.0951C29.6293 11.0951 29.6331 11.0956 29.6372 11.0951ZM29.6493 39.613C29.6402 39.613 29.6312 39.613 29.6223 39.613C27.8752 39.613 26.3598 38.9871 25.1198 37.7522C24.7213 37.3458 24.3881 36.9097 24.1218 36.4496C23.5599 35.5107 23.2708 34.4299 23.2667 33.2469C23.2708 32.0726 23.5562 30.9996 24.1155 30.0529C24.3766 29.5943 24.7145 29.1506 25.1125 28.7435C26.3652 27.5076 27.8841 26.8855 29.6372 26.8852C31.3928 26.8855 32.9056 27.509 34.1349 28.7372C34.5466 29.1482 34.8947 29.5948 35.1705 30.0648C35.7232 31.0134 36.0011 32.0832 35.9976 33.2463C36.0011 34.4183 35.7189 35.4958 35.1599 36.4453C34.8832 36.9098 34.5393 37.3484 34.1341 37.7519C32.911 38.9858 31.4007 39.613 29.6493 39.613ZM29.6372 28.5182C28.3103 28.5186 27.2092 28.9691 26.2703 29.8958C25.9796 30.193 25.7262 30.5249 25.528 30.8726C25.1069 31.586 24.9032 32.3597 24.9003 33.2469C24.9034 34.1394 25.109 34.918 25.5297 35.6219C25.7338 35.9733 25.9839 36.3005 26.2798 36.6017C27.2086 37.5267 28.3051 37.9796 29.6252 37.9796C29.6321 37.9796 29.6388 37.9796 29.6461 37.9796C30.9676 37.9796 32.0564 37.5279 32.9777 36.5985C33.2886 36.2883 33.549 35.9578 33.7536 35.6129C34.1668 34.9129 34.3668 34.1377 34.3642 33.2463C34.3671 32.3603 34.1691 31.5908 33.7605 30.8887C33.5562 30.541 33.2934 30.2045 32.98 29.8914C32.0555 28.9679 30.9621 28.5186 29.6372 28.5182Z" fill="#2824E0"/>
<path d="M90.4784 41.0792C90.4784 43.4732 89.6252 45.345 87.9189 46.6948C86.2126 48.0445 84.0861 48.7194 81.5394 48.7194C78.6361 48.7194 76.2549 47.879 74.3958 46.1982C72.5621 44.5173 71.6453 42.4163 71.6453 39.895H76.6114C76.8152 41.3721 77.4009 42.429 78.3687 43.0657C79.3619 43.6769 80.4061 43.9825 81.5011 43.9825C82.0614 43.9825 82.5962 43.9188 83.1056 43.7915C83.6404 43.6642 84.1497 43.3713 84.6336 42.9129C85.143 42.429 85.3976 41.805 85.3976 41.041C85.3976 40.5062 85.283 40.0351 85.0538 39.6276C84.8246 39.1947 84.4681 38.8126 83.9842 38.4816C83.5258 38.1505 83.0929 37.8958 82.6854 37.7176C82.2779 37.5138 81.7304 37.2846 81.0427 37.0299C78.3941 35.9858 76.586 35.1326 75.6182 34.4705C73.4535 32.9934 72.3711 31.1088 72.3711 28.8167C72.3711 26.6266 73.1988 24.8693 74.8542 23.545C76.535 22.2207 78.6106 21.5586 81.0809 21.5586C83.7041 21.5586 85.7924 22.2844 87.3459 23.736C88.9249 25.1877 89.7143 26.8303 89.7143 28.6639H84.8246C84.6973 27.9254 84.2643 27.3396 83.5258 26.9067C82.8127 26.4483 81.9723 26.2191 81.0045 26.2191C80.0368 26.2191 79.2346 26.4483 78.5979 26.9067C77.9612 27.3651 77.6429 28.0018 77.6429 28.8167C77.6429 29.2242 77.7193 29.5808 77.8721 29.8864C78.0249 30.1665 78.3177 30.4594 78.7507 30.765C79.2091 31.0451 79.6038 31.2743 79.9349 31.4526C80.2915 31.6309 80.8899 31.911 81.7304 32.293C81.9341 32.3949 82.4562 32.6241 83.2966 32.9806C84.1625 33.3117 84.8246 33.5919 85.283 33.8211C85.7414 34.0248 86.3527 34.3813 87.1167 34.8907C87.8807 35.4 88.4664 35.9094 88.8739 36.4187C89.2814 36.9281 89.6507 37.5902 89.9818 38.4052C90.3128 39.2201 90.4784 40.1115 90.4784 41.0792Z" fill="#2824E0"/>
<path d="M109.863 46.0453C107.953 47.8281 105.648 48.7194 102.948 48.7194C100.249 48.7194 97.9567 47.8281 96.0721 46.0453C94.1875 44.2626 93.2452 41.9197 93.2452 39.0164C93.2452 36.0877 94.213 33.7319 96.1485 31.9492C98.1095 30.141 100.427 29.237 103.101 29.237C105.775 29.237 108.054 30.1283 109.939 31.911C111.824 33.6937 112.766 36.0367 112.766 38.94C112.766 41.8687 111.798 44.2372 109.863 46.0453ZM99.5866 42.7601C100.503 43.7788 101.675 44.2881 103.101 44.2881C104.527 44.2881 105.661 43.7915 106.501 42.7983C107.341 41.7796 107.762 40.5062 107.762 38.9782C107.762 37.4501 107.341 36.1895 106.501 35.1963C105.661 34.1776 104.527 33.6683 103.101 33.6683C101.675 33.6683 100.503 34.1776 99.5866 35.1963C98.6952 36.215 98.2495 37.4756 98.2495 38.9782C98.2495 40.4808 98.6952 41.7414 99.5866 42.7601Z" fill="#2824E0"/>
<path d="M127.768 43.7151L129.601 47.115C129.474 47.2423 129.296 47.3951 129.067 47.5734C128.837 47.7517 128.328 47.9936 127.539 48.2992C126.749 48.5793 125.921 48.7194 125.056 48.7194C123.171 48.7194 121.554 48.1337 120.204 46.9622C118.88 45.7907 118.218 44.2626 118.218 42.3781V33.5155H114.397V29.7718H116.308C116.97 29.7718 117.492 29.568 117.874 29.1606C118.281 28.7531 118.485 28.2055 118.485 27.5179V23.6978H123.107V29.428H127.921V33.5155H123.107V42.0725C123.107 42.7091 123.336 43.2567 123.795 43.7151C124.279 44.148 124.865 44.3645 125.552 44.3645C125.883 44.3645 126.227 44.3136 126.584 44.2117C126.966 44.0844 127.258 43.9698 127.462 43.8679L127.768 43.7151Z" fill="#2824E0"/>
<path d="M140.585 29.237C141.858 29.237 143.055 29.4662 144.176 29.9246C145.322 30.3575 146.353 31.0197 147.27 31.911C148.187 32.7769 148.875 33.9484 149.333 35.4255C149.817 36.9026 149.983 38.5707 149.83 40.4298H135.886C136.141 41.7796 136.74 42.7855 137.682 43.4477C138.65 44.0844 139.719 44.4027 140.891 44.4027C141.655 44.4027 142.342 44.2754 142.954 44.0207C143.59 43.7406 144.023 43.4604 144.252 43.1803L144.596 42.7983H149.41C148.696 44.6574 147.55 46.109 145.971 47.1532C144.392 48.1973 142.648 48.7194 140.738 48.7194C138.089 48.7194 135.81 47.8026 133.9 45.9689C132.015 44.1098 131.073 41.7286 131.073 38.8254C131.073 35.9476 132.003 33.6301 133.862 31.8728C135.721 30.1156 137.962 29.237 140.585 29.237ZM140.738 33.4009C139.694 33.4009 138.764 33.681 137.949 34.2413C137.16 34.8016 136.574 35.5783 136.192 36.5715H144.787C144.252 34.4577 142.903 33.4009 140.738 33.4009Z" fill="#2824E0"/>
<path d="M164.514 29.237H165.699V34.1267C165.189 34.0248 164.629 33.9739 164.018 33.9739C162.515 33.9739 161.229 34.3813 160.159 35.1963C159.09 36.0112 158.555 37.2337 158.555 38.8636V48.5284H153.474V29.428H157.371L158.058 31.529H158.67C160.198 30.001 162.146 29.237 164.514 29.237Z" fill="#2824E0"/>
<path d="M171.831 27.2887C170.94 27.2887 170.163 26.9704 169.501 26.3337C168.864 25.697 168.546 24.9457 168.546 24.0798C168.546 23.163 168.864 22.399 169.501 21.7878C170.137 21.1511 170.914 20.8328 171.831 20.8328C172.722 20.8328 173.474 21.1511 174.085 21.7878C174.722 22.399 175.04 23.163 175.04 24.0798C175.04 24.9457 174.722 25.697 174.085 26.3337C173.448 26.9704 172.697 27.2887 171.831 27.2887ZM174.276 29.428V48.5284H169.386V29.428H174.276Z" fill="#2824E0"/>
<path d="M197.25 44.0589L200 45.5105C199.975 45.5869 199.936 45.7015 199.885 45.8543C199.834 46.0071 199.694 46.2746 199.465 46.6566C199.236 47.0131 198.969 47.3314 198.663 47.6116C198.383 47.8917 197.963 48.1464 197.402 48.3756C196.868 48.6048 196.269 48.7194 195.607 48.7194C193.57 48.7194 192.143 47.7771 191.328 45.8925C190.157 47.7771 188.17 48.7194 185.369 48.7194C183.204 48.7194 181.485 48.1973 180.212 47.1532C178.939 46.0835 178.302 44.6574 178.302 42.8747C178.302 41.8815 178.493 41.0156 178.875 40.277C179.257 39.513 179.804 38.9018 180.518 38.4434C181.256 37.985 181.995 37.6157 182.733 37.3355C183.472 37.0299 184.35 36.8135 185.369 36.6861C186.413 36.5333 187.254 36.4442 187.89 36.4187C188.527 36.3678 189.266 36.3296 190.106 36.3041C190.03 34.2922 188.947 33.2863 186.859 33.2863C186.35 33.2863 185.891 33.3499 185.484 33.4773C185.102 33.5791 184.809 33.7192 184.605 33.8975C184.427 34.0757 184.274 34.254 184.147 34.4323C184.019 34.5851 183.943 34.7252 183.917 34.8525L183.879 35.0053H179.181C179.359 33.2735 180.136 31.8856 181.511 30.8414C182.886 29.7718 184.669 29.237 186.859 29.237C189.176 29.237 191.048 29.8864 192.474 31.1852C193.901 32.4586 194.614 34.4068 194.614 37.0299V42.1107C194.614 43.9698 195.085 44.8993 196.027 44.8993C196.307 44.8993 196.549 44.8357 196.753 44.7083C196.957 44.5555 197.097 44.4027 197.173 44.2499L197.25 44.0589ZM183.115 42.6837C183.115 43.6769 183.663 44.3263 184.758 44.6319C186.031 44.963 187.215 44.7083 188.311 43.8679C189.38 43.0784 189.953 41.9579 190.03 40.5062V39.9332C188.96 39.9841 188.094 40.0478 187.432 40.1242C186.77 40.2006 186.057 40.3407 185.293 40.5444C184.554 40.7227 184.007 40.9901 183.65 41.3466C183.293 41.7032 183.115 42.1489 183.115 42.6837Z" fill="#2824E0"/>
</svg>
